<?xml version="1.0" standalone="no"?>
<!DOCTYPE svg PUBLIC "-//W3C//DTD SVG 20010904//EN"
 "http://www.w3.org/TR/2001/REC-SVG-20010904/DTD/svg10.dtd">
<svg version="1.0" xmlns="http://www.w3.org/2000/svg"
 width="700.000000pt" height="700.000000pt" viewBox="0 0 700.000000 700.000000"
 preserveAspectRatio="xMidYMid meet">
<metadata>
Created by potrace 1.14, written by Peter Selinger 2001-2017
</metadata>
<g transform="translate(0.000000,700.000000) scale(0.100000,-0.100000)"
fill="#000000" stroke="none">
<path d="M3145 6924 c-145 -22 -243 -54 -387 -126 -82 -40 -228 -136 -291
-190 l-38 -33 3 -361 3 -362 70 65 c293 272 531 396 749 392 144 -3 242 -44
326 -136 140 -153 167 -418 66 -639 -36 -78 -84 -149 -256 -379 -86 -115 -176
-238 -199 -272 -102 -150 -181 -343 -197 -477 -4 -28 -8 -54 -10 -57 -9 -15
-16 -230 -18 -509 l-1 -305 257 0 c141 0 259 2 262 5 3 3 6 156 7 340 2 373
11 455 59 551 24 49 121 201 140 219 9 9 184 242 258 344 127 175 201 313 250
466 16 52 33 115 37 140 3 25 8 61 11 80 14 96 9 291 -10 415 -37 232 -129
424 -280 583 -119 125 -252 200 -421 237 -11 3 -31 7 -45 10 -58 13 -260 12
-345 -1z"/>
<path d="M5408 5535 c-2 -1 -34 -5 -73 -9 -84 -7 -105 -11 -215 -38 -91 -22
-276 -90 -303 -111 -10 -7 -42 -110 -87 -277 -39 -146 -73 -274 -75 -285 -3
-11 -11 -43 -20 -70 -8 -28 -15 -55 -15 -62 0 -6 55 17 123 51 374 189 611
233 832 155 245 -87 347 -339 253 -626 -48 -146 -134 -251 -343 -416 -82 -65
-166 -132 -185 -147 -19 -15 -71 -56 -115 -91 -100 -78 -229 -206 -284 -282
-68 -93 -134 -229 -184 -377 -24 -71 -177 -632 -177 -649 0 -5 12 -11 28 -14
25 -6 173 -45 379 -101 l92 -24 15 51 c18 63 125 454 131 481 12 54 52 158 81
218 43 86 127 171 309 313 395 308 496 399 600 540 99 133 184 325 219 492 8
38 18 82 21 98 16 68 14 339 -1 420 -58 301 -219 522 -469 647 -27 14 -77 35
-110 46 -52 18 -86 27 -180 48 -11 2 -63 7 -115 10 -52 3 -103 7 -112 8 -9 2
-18 3 -20 1z"/>
<path d="M1218 5495 c-2 -2 -23 -6 -48 -9 -145 -20 -349 -103 -487 -198 -96
-66 -225 -187 -304 -286 -99 -123 -95 -110 -69 -203 12 -45 23 -89 25 -98 2
-9 18 -68 35 -131 18 -63 40 -146 50 -185 22 -85 50 -187 53 -199 2 -5 30 33
62 85 256 404 507 595 770 584 153 -7 292 -104 369 -260 45 -90 68 -189 68
-280 -2 -148 -18 -206 -149 -535 -176 -443 -194 -506 -199 -715 -4 -201 7
-262 151 -795 14 -52 30 -114 36 -137 7 -28 17 -43 27 -43 13 0 428 109 479
125 8 3 2 41 -23 132 -147 547 -158 603 -141 734 7 54 59 218 97 304 62 141
193 485 214 565 72 269 70 512 -8 750 -80 243 -161 385 -301 526 -173 175
-370 264 -597 269 -59 1 -109 1 -110 0z"/>
<path d="M2962 3251 c-4 -3 -8 -203 -8 -443 l0 -438 273 0 c253 0 273 1 273
18 1 52 1 830 1 848 -1 20 -5 21 -266 21 -145 0 -268 -3 -273 -6z"/>
<path d="M4445 2002 c-5 -15 -9 -31 -10 -37 -4 -17 -53 -199 -110 -410 -82
-303 -103 -385 -97 -385 2 0 55 -13 116 -30 61 -16 178 -47 259 -69 103 -27
149 -36 152 -28 2 7 21 75 41 152 20 77 45 172 56 210 11 39 21 78 23 88 2 9
15 59 29 110 66 239 77 280 73 284 -4 3 -416 116 -498 136 -23 6 -28 3 -34
-21z"/>
<path d="M1916 1881 c-137 -37 -251 -72 -253 -78 -4 -10 211 -826 222 -844 4
-5 10 -7 14 -5 4 3 119 35 256 71 138 37 252 69 254 70 2 2 -23 100 -54 217
-31 117 -65 245 -76 283 -10 39 -28 104 -39 145 -11 41 -28 105 -37 143 -9 37
-22 67 -27 66 -6 0 -123 -31 -260 -68z"/>
</g>
</svg>
